# xmcd
#
# Track frame offsets:
# 150
# 16271
# 34962
# 51410
# 68992
# 82950
# 102444
# 117581
# 137418
# 152228
# 169317
#
# Disc length: 2461 seconds
#
#
# Revision: 0
# Processed by: cddbd v1.5.2PL0 Copyright (c) Steve Scherf et al.
# Submitted via: FreeRIP 2.96 
#
DISCID=96099b0b
DTITLE=Blake Shelton - Pure BS
DYEAR=2007
DGENRE=Country
TTITLE0=This Can't Be Good
TTITLE1=Don't Make Me
TTITLE2=The More I Drink
TTITLE3=I Don't Care
TTITLE4=She Don't Love Me
TTITLE5=Back There Again
TTITLE6=It Ain't Easy Bein' Me
TTITLE7=What I Wouldn't Give
TTITLE8=I Have Been Lonely
TTITLE9=She Can't Get That
TTITLE10=The Last Country Song
EXTD=
EXTT0=
EXTT1=
EXTT2=
EXTT3=
EXTT4=
EXTT5=
EXTT6=
EXTT7=
EXTT8=
EXTT9=
EXTT10=
PLAYORDER=
